<svg xmlns="http://www.w3.org/2000/svg" viewBox="0 0 32 32">
  <!-- Dark background matching app theme -->
  <rect width="32" height="32" rx="7" fill="#120F0E"/>

  <!-- Open Quran left page -->
  <path d="M3 22 L3 11 C3 10 4 9 5.5 9 C9.5 9 13 10.5 16 13 L16 24 C13 22 9.5 21 5.5 21 C4 21 3 21.5 3 22 Z" fill="#C9A84C"/>

  <!-- Open Quran right page -->
  <path d="M29 22 L29 11 C29 10 28 9 26.5 9 C22.5 9 19 10.5 16 13 L16 24 C19 22 22.5 21 26.5 21 C28 21 29 21.5 29 22 Z" fill="#D4B84A"/>

  <!-- Spine glow -->
  <rect x="15.2" y="9" width="1.6" height="15" rx="0.8" fill="#8B6520"/>

  <!-- Decorative star above spine -->
  <path d="M16 5 L16.5 6.5 L18 6.5 L16.8 7.4 L17.3 9 L16 8.1 L14.7 9 L15.2 7.4 L14 6.5 L15.5 6.5 Z" fill="#C9A84C"/>
</svg>
